<?xml version="1.0" encoding="utf-8"?>
<!-- Generator: Adobe Illustrator 26.5.1, SVG Export Plug-In . SVG Version: 6.00 Build 0)  -->
<svg version="1.1" id="Layer_1" xmlns="http://www.w3.org/2000/svg" xmlns:xlink="http://www.w3.org/1999/xlink" x="0px" y="0px"
	 viewBox="0 0 612 792" style="enable-background:new 0 0 612 792;" xml:space="preserve">
<path style="fill:#E7F6FD;" d="M533.9796,295.1825c0,140.5249-266.6404,433.4978-416.6117,433.4978s47.5689-106.0521-9.9741-450.528
	C84.2462,139.5816,222.6472,10.3153,372.6186,10.3153S533.9796,154.6576,533.9796,295.1825z"/>
<path style="fill:#1F4351;" d="M482.9592,329.3605c-10.8844,144.898-99.2624,110.8844-129.932,110.8844
	s-97.2789,2.0408-77.551-94.5578c4.6012-22.5299,8.8498-194.9575,123.657-193.6665
	C500.7356,153.163,484.6816,306.4301,482.9592,329.3605z"/>
<path style="fill:#1F4351;" d="M353.8361,104.8047c7.3943,7.6536,12.4185,41.3712-5.009,58.511
	c-17.4274,17.1398-50.7069,11.2112-58.1013,3.5576c-7.3944-7.6535-5.4662-33.2982,11.9612-50.4379
	C320.1145,99.2956,346.4417,97.1511,353.8361,104.8047z"/>
<path style="fill:#1F4351;" d="M500.7356,147.0406c-4.4677,9.6911-33.9279,26.3965-55.9949,16.0407
	s-28.3843-43.8513-23.9167-53.5424s26.4628-15.7043,48.5297-5.3485C491.4207,114.5463,505.2033,137.3495,500.7356,147.0406z"/>
</svg>
