<?xml version="1.0" encoding="utf-8"?>
<!-- Generator: Adobe Illustrator 26.5.0, SVG Export Plug-In . SVG Version: 6.00 Build 0)  -->
<svg version="1.1" id="Layer_1" xmlns="http://www.w3.org/2000/svg" xmlns:xlink="http://www.w3.org/1999/xlink" x="0px" y="0px"
	 viewBox="0 0 595.2756 841.8898" style="enable-background:new 0 0 595.2756 841.8898;" xml:space="preserve">
<path style="fill:#E15F5F;" d="M543.8967,568.377H52.3352c-3.0349,0-5.4952-2.4603-5.4952-5.4952V117.8802
	c0-3.0349,2.4603-5.4952,5.4952-5.4952l47.833,44.707h388.3401l55.3885-44.707c3.0349,0,5.4952,2.4603,5.4952,5.4952v445.0015
	C549.392,565.9167,546.9316,568.377,543.8967,568.377z"/>
<rect x="94.1742" y="288.7515" style="fill:#1A1D0F;stroke:#000000;stroke-miterlimit:10;" width="136.2905" height="24.1452"/>
<rect x="335.6223" y="284.6805" style="fill:#1A1D0F;stroke:#000000;stroke-miterlimit:10;" width="155.3078" height="33.733"/>
<path style="fill:#E15F5F;" d="M336.2562,726.769H229.4963c-47.0204,0-85.1381-38.1176-85.1381-85.1381v-0.0002
	c0-47.0204,38.1176-85.1381,85.1381-85.1381h106.7599c47.0204,0,85.1381,38.1176,85.1381,85.1381v0.0002
	C421.3943,688.6514,383.2767,726.769,336.2562,726.769z"/>
<path style="fill:#E15F5F;" d="M101.233,708.0079L101.233,708.0079c0-12.2535,9.9334-22.1868,22.1868-22.1868h103.9449
	c12.2534,0,22.1868,9.9333,22.1868,22.1868l0,0c0,12.2534-9.9334,22.1868-22.1868,22.1868H123.4198
	C111.1663,730.1947,101.233,720.2613,101.233,708.0079z"/>
<path style="fill:#E15F5F;" d="M470.7885,708.0078L470.7885,708.0078c0,12.2535-9.9334,22.1869-22.1868,22.1869H344.6568
	c-12.2534,0-22.1868-9.9333-22.1868-22.1868l0,0c0-12.2535,9.9334-22.1868,22.1868-22.1868h103.9449
	C460.8552,685.821,470.7885,695.7544,470.7885,708.0078z"/>
</svg>
