<?xml version="1.0" encoding="utf-8"?>
<!-- Generator: Adobe Illustrator 26.5.0, SVG Export Plug-In . SVG Version: 6.00 Build 0)  -->
<svg version="1.1" id="Layer_1" xmlns="http://www.w3.org/2000/svg" xmlns:xlink="http://www.w3.org/1999/xlink" x="0px" y="0px"
	 viewBox="0 0 595.2756 841.8898" style="enable-background:new 0 0 595.2756 841.8898;" xml:space="preserve">
<path style="fill:#E15F5F;" d="M543.8967,524.8141H52.3352c-3.0349,0-5.4952-2.4603-5.4952-5.4952V74.3174
	c0-3.0349,2.4603-5.4952,5.4952-5.4952l47.833,44.7071h388.3401l55.3885-44.7071c3.0349,0,5.4952,2.4603,5.4952,5.4952V519.319
	C549.392,522.3539,546.9316,524.8141,543.8967,524.8141z"/>
<rect x="94.1742" y="245.1887" style="fill:#1A1D0F;stroke:#000000;stroke-miterlimit:10;" width="136.2905" height="24.1452"/>
<rect x="335.6223" y="241.1176" style="fill:#1A1D0F;stroke:#000000;stroke-miterlimit:10;" width="155.3078" height="33.733"/>
<path style="fill:#E15F5F;" d="M336.2562,683.2061H229.4963c-47.0204,0-85.1381-38.1176-85.1381-85.1381v-0.0002
	c0-47.0204,38.1176-85.1381,85.1381-85.1381h106.7599c47.0204,0,85.1381,38.1176,85.1381,85.1381v0.0002
	C421.3943,645.0885,383.2767,683.2061,336.2562,683.2061z"/>
<path style="fill:#E15F5F;" d="M157.8974,766.7079L157.8974,766.7079c-10.0225-7.0496-12.4325-20.8892-5.383-30.9117l59.801-85.02
	c7.0496-10.0225,20.8892-12.4325,30.9117-5.3829l0,0.0001c10.0225,7.0496,12.4325,20.8892,5.3829,30.9117l-59.801,85.0199
	C181.7596,771.3475,167.9199,773.7575,157.8974,766.7079z"/>
<path style="fill:#E15F5F;" d="M412.5032,765.4157L412.5032,765.4157c-9.809,7.3438-23.7141,5.3453-31.0578-4.4636l-62.2966-83.2087
	c-7.3438-9.809-5.3453-23.714,4.4636-31.0577l0-0.0001c9.809-7.3438,23.714-5.3453,31.0578,4.4636l62.2966,83.2087
	C424.3106,744.1669,422.3122,758.0719,412.5032,765.4157z"/>
</svg>
