<?xml version="1.0" encoding="utf-8"?>
<!-- Generator: Adobe Illustrator 26.5.0, SVG Export Plug-In . SVG Version: 6.00 Build 0)  -->
<svg version="1.1" id="Layer_1" xmlns="http://www.w3.org/2000/svg" xmlns:xlink="http://www.w3.org/1999/xlink" x="0px" y="0px"
	 viewBox="0 0 595.2756 841.8898" style="enable-background:new 0 0 595.2756 841.8898;" xml:space="preserve">
<path style="fill:#E15F5F;" d="M543.8967,515.8675H52.3352c-3.0349,0-5.4952-2.4603-5.4952-5.4952V65.3708
	c0-3.0349,2.4603-5.4952,5.4952-5.4952l47.833,44.707h388.3401l55.3885-44.707c3.0349,0,5.4952,2.4603,5.4952,5.4952v445.0015
	C549.392,513.4072,546.9316,515.8675,543.8967,515.8675z"/>
<rect x="94.1742" y="236.242" style="fill:#1A1D0F;stroke:#000000;stroke-miterlimit:10;" width="136.2905" height="43.7988"/>
<rect x="335.6223" y="232.171" style="fill:#1A1D0F;stroke:#000000;stroke-miterlimit:10;" width="155.3078" height="51.9408"/>
<path style="fill:#E15F5F;" d="M336.2562,674.2595H229.4963c-47.0204,0-85.1381-38.1176-85.1381-85.1381v-0.0002
	c0-47.0204,38.1176-85.138,85.1381-85.138h106.7599c47.0204,0,85.1381,38.1176,85.1381,85.138v0.0002
	C421.3943,636.1418,383.2767,674.2595,336.2562,674.2595z"/>
<path style="fill:#E15F5F;" d="M169.8415,776.9586L169.8415,776.9586c-10.8229-5.7455-14.9389-19.1769-9.1934-29.9999
	l48.7391-91.8098c5.7456-10.8229,19.1769-14.9389,29.9998-9.1934h0c10.8229,5.7455,14.9389,19.1769,9.1934,29.9999l-48.7391,91.8098
	C194.0958,778.5882,180.6644,782.7042,169.8415,776.9586z"/>
<path style="fill:#E15F5F;" d="M410.2972,775.6809L410.2972,775.6809c-10.6118,6.1267-24.1811,2.4908-30.3078-8.1209
	l-51.9725-90.019c-6.1267-10.6118-2.4908-24.181,8.1209-30.3077h0c10.6118-6.1267,24.181-2.4908,30.3077,8.1209l51.9725,90.019
	C424.5448,755.9849,420.909,769.5542,410.2972,775.6809z"/>
</svg>
