<?xml version="1.0" encoding="utf-8"?>
<!-- Generator: Adobe Illustrator 26.5.0, SVG Export Plug-In . SVG Version: 6.00 Build 0)  -->
<svg version="1.1" id="Layer_1" xmlns="http://www.w3.org/2000/svg" xmlns:xlink="http://www.w3.org/1999/xlink" x="0px" y="0px"
	 viewBox="0 0 595.2756 841.8898" style="enable-background:new 0 0 595.2756 841.8898;" xml:space="preserve">
<path style="fill:#E15F5F;" d="M543.8967,516.4045H52.3352c-3.0349,0-5.4952-2.4603-5.4952-5.4952V65.9078
	c0-3.0349,2.4603-5.4952,5.4952-5.4952l47.833,44.707h388.3401l55.3885-44.707c3.0349,0,5.4952,2.4603,5.4952,5.4952v445.0015
	C549.392,513.9443,546.9316,516.4045,543.8967,516.4045z"/>
<rect x="94.1742" y="236.7791" style="fill:#1A1D0F;stroke:#000000;stroke-miterlimit:10;" width="136.2905" height="43.7988"/>
<rect x="335.6223" y="232.708" style="fill:#1A1D0F;stroke:#000000;stroke-miterlimit:10;" width="155.3078" height="51.9408"/>
<path style="fill:#E15F5F;" d="M336.2562,674.7965H229.4963c-47.0204,0-85.1381-38.1176-85.1381-85.1381v-0.0002
	c0-47.0204,38.1176-85.138,85.1381-85.138h106.7599c47.0204,0,85.1381,38.1176,85.1381,85.138v0.0002
	C421.3943,636.6789,383.2767,674.7965,336.2562,674.7965z"/>
<path style="fill:#E15F5F;" d="M230.4647,779.8436L230.4647,779.8436c-12.2535,0-22.1868-9.9334-22.1868-22.1868V653.7119
	c0-12.2534,9.9334-22.1868,22.1868-22.1868h0c12.2534,0,22.1868,9.9333,22.1868,22.1868v103.9449
	C252.6515,769.9102,242.7181,779.8436,230.4647,779.8436z"/>
<path style="fill:#E15F5F;" d="M333.0354,782.1671L333.0354,782.1671c-12.2535,0-22.1869-9.9333-22.1869-22.1868V656.0354
	c0-12.2534,9.9333-22.1868,22.1868-22.1868h0c12.2534,0,22.1868,9.9334,22.1868,22.1868v103.9449
	C355.2222,772.2338,345.2888,782.1671,333.0354,782.1671z"/>
</svg>
